<?xml version="1.0" standalone="no"?>
<!DOCTYPE svg PUBLIC "-//W3C//DTD SVG 20010904//EN"
 "http://www.w3.org/TR/2001/REC-SVG-20010904/DTD/svg10.dtd">
<svg version="1.0" xmlns="http://www.w3.org/2000/svg"
 width="360.000000pt" height="360.000000pt" viewBox="0 0 360.000000 360.000000"
 preserveAspectRatio="xMidYMid meet">
<metadata>
Created by potrace 1.14, written by Peter Selinger 2001-2017
</metadata>
<g transform="translate(0.000000,360.000000) scale(0.100000,-0.100000)"
fill="#000000" stroke="none">
<path d="M2345 2801 c-99 -26 -131 -54 -597 -519 l-457 -456 -5 -50 c-15 -164
-35 -488 -30 -501 5 -13 -18 -15 -190 -15 l-196 0 -2 498 -3 497 -35 0 -35 0
-3 -719 c-1 -523 1 -723 9 -732 17 -20 1981 -21 1998 -1 7 9 12 86 13 213 l3
199 115 5 c93 4 115 8 115 20 0 12 -21 16 -117 18 l-117 3 -3 632 -3 632 -27
57 c-37 79 -108 152 -185 190 -52 25 -79 32 -141 34 -42 2 -90 0 -107 -5z m21
-431 c109 -111 201 -203 204 -206 2 -3 -169 -178 -380 -389 l-385 -385 -202
202 c-112 112 -203 207 -203 213 0 12 304 315 317 315 5 0 35 -27 68 -60 59
-60 89 -72 113 -48 22 22 12 42 -55 110 l-67 68 39 40 c21 22 44 40 50 40 6 0
51 -40 100 -90 89 -89 117 -104 143 -78 23 23 11 44 -85 140 l-97 98 114 115
c63 63 118 115 121 115 3 0 95 -90 205 -200z m364 -650 l0 -460 -195 0 -195 0
6 24 c3 15 -1 29 -11 40 -14 14 -45 16 -233 16 l-217 0 420 420 c231 231 421
420 422 420 2 0 3 -207 3 -460z m-1072 -358 c-39 -3 -45 0 -68 30 -32 43 -167
179 -203 204 -26 18 -28 24 -22 58 l8 38 164 -163 163 -164 -42 -3z m1067
-317 l0 -170 -925 0 -925 0 -3 160 c-1 87 0 165 2 172 4 11 180 13 928 11
l923 -3 0 -170z"/>
<path d="M575 1250 c-14 -23 13 -31 91 -28 62 2 79 6 79 18 0 12 -17 16 -82
18 -52 2 -84 -1 -88 -8z"/>
</g>
</svg>
